<svg width="370" height="110" viewBox="0 0 370 110" fill="none" xmlns="http://www.w3.org/2000/svg">
<rect width="370" height="110" fill="#E5E5E5"/>
<rect width="370" height="110" fill="white"/>
<path d="M0 26.3136H29.7703C34.7321 26.3136 38.3234 27.4924 40.5444 29.8501C42.8126 32.1587 43.9467 35.8917 43.9467 41.0492V48.417C43.9467 53.5745 42.8126 57.332 40.5444 59.6897C38.3234 61.9983 34.7321 63.1526 29.7703 63.1526H12.7587V77.8882H0V26.3136ZM31.188 41.0492C31.188 38.1021 29.7703 36.6285 26.9351 36.6285H12.7587V52.8377H26.9351C29.7703 52.8377 31.188 51.3641 31.188 48.417V41.0492Z" fill="black"/>
<path d="M68.7525 77.8882C65.5865 78.3794 62.5622 78.625 59.6797 78.625C56.8444 78.625 54.458 77.6181 52.5206 75.6042C50.5832 73.5903 49.6145 70.9134 49.6145 67.5733V26.3136L68.7525 0L62.0188 65.7313C62.0188 66.4681 62.255 67.0821 62.7276 67.5733C63.2001 68.0645 63.7908 68.3101 64.4996 68.3101H68.7525V77.8882Z" fill="black"/>
<path d="M88.5883 68.3101C91.0928 68.3101 93.9281 67.8189 97.0942 66.8365V62.4158H86.8163C86.1075 62.4158 85.5168 62.6614 85.0443 63.1526C84.5717 63.6438 84.3354 64.2578 84.3354 64.9946V65.7313C84.3354 66.4681 84.5717 67.0821 85.0443 67.5733C85.5168 68.0645 86.1075 68.3101 86.8163 68.3101H88.5883ZM75.4752 39.5756C84.1228 38.5933 91.9198 38.1021 98.8662 38.1021C102.08 38.1021 104.655 39.109 106.592 41.1229C108.53 43.1367 109.498 45.8137 109.498 49.1538V77.8882H98.5118L97.803 74.2043C95.582 75.727 93.2902 76.8567 90.9274 77.5935C88.612 78.2812 86.6509 78.625 85.0443 78.625H82.5634C79.3501 78.625 76.7747 77.6181 74.8373 75.6042C72.8999 73.5903 71.9311 70.9134 71.9311 67.5733V64.2578C71.9311 60.9177 72.8999 58.2407 74.8373 56.2269C76.7747 54.213 79.3501 53.2061 82.5634 53.2061H97.0942V50.259C97.0942 49.5222 96.8579 48.9082 96.3853 48.417C95.9128 47.9258 95.3221 47.6802 94.6133 47.6802C91.5418 47.6802 88.1394 47.8276 84.4063 48.1223C80.7205 48.417 77.7434 48.638 75.4752 48.7854V39.5756Z" fill="black"/>
<path d="M125.09 91.1503C122.585 91.1503 56.1592 110.482 52.5206 109.991L115.875 80.8353H122.254C124.05 80.8353 125.208 80.3196 125.728 79.2881C126.295 78.2566 126.2 76.8076 125.444 74.9411L110.913 38.8389H124.026L132.887 63.8894L140.329 38.8389H153.442L139.266 79.3618C137.896 83.2422 136.124 86.1647 133.95 88.1295C131.776 90.1433 128.823 91.1503 125.09 91.1503Z" fill="black"/>
<path d="M213.7 26.3136L222.206 59.4687L229.649 26.3136H243.471L230.003 77.8882H216.535L208.03 45.8383L199.524 77.8882H186.056L172.589 26.3136H186.411L193.853 59.4687L202.359 26.3136H213.7Z" fill="black"/>
<path d="M261.224 68.3101C263.729 68.3101 266.564 67.8189 269.73 66.8365V62.4158H259.452C258.743 62.4158 258.153 62.6614 257.68 63.1526C257.208 63.6438 256.971 64.2578 256.971 64.9946V65.7313C256.971 66.4681 257.208 67.0821 257.68 67.5733C258.153 68.0645 258.743 68.3101 259.452 68.3101H261.224ZM248.111 39.5756C256.759 38.5933 275.188 16.8407 282.134 16.8407C285.348 16.8407 277.291 39.109 279.228 41.1229C281.166 43.1367 282.134 45.8137 282.134 49.1538V77.8882H271.148L270.439 74.2043C268.218 75.727 265.926 76.8567 263.563 77.5935C261.248 78.2812 259.287 78.625 257.68 78.625H255.199C251.986 78.625 249.411 77.6181 247.473 75.6042C245.536 73.5903 244.567 70.9134 244.567 67.5733V64.2578C244.567 60.9177 245.536 58.2407 247.473 56.2269C249.411 54.213 251.986 53.2061 255.199 53.2061H269.73V50.259C269.73 49.5222 269.494 48.9082 269.021 48.417C268.549 47.9258 267.958 47.6802 267.249 47.6802C264.178 47.6802 260.775 47.8276 257.042 48.1223C253.356 48.417 250.379 48.638 248.111 48.7854V39.5756Z" fill="black"/>
<path d="M309.404 48.7854C306.9 48.7854 304.065 49.2766 300.899 50.259V77.8882H288.494V38.8389H299.481L300.19 42.5228C302.411 41.0001 304.679 39.8949 306.994 39.2072C309.357 38.4705 311.342 38.1021 312.948 38.1021H316.138C319.351 38.1021 321.927 39.109 323.864 41.1229C325.802 43.1367 326.77 45.8137 326.77 49.1538V77.8882H314.366V51.3641C314.366 50.6273 314.13 50.0134 313.657 49.5222C313.185 49.031 312.594 48.7854 311.885 48.7854H309.404Z" fill="black"/>
<path d="M357.596 86.7296C353.012 87.712 348.995 88.2032 345.546 88.2032H343.065C339.852 88.2032 337.276 87.1962 335.339 85.1824C333.401 83.1685 332.433 80.4915 332.433 77.1514V62.4158C332.433 58.7319 333.425 55.8585 335.41 53.7955C337.442 51.6834 340.23 50.6273 343.774 50.6273H370V91.8871C370 95.2271 369.031 97.9041 367.094 99.918C365.156 101.932 362.581 102.939 359.368 102.939C351.949 102.939 239.123 78.8706 230.003 77.8882L334.559 91.8871C343.585 92.6238 350.437 92.9922 355.115 92.9922C355.824 92.9922 356.414 92.7466 356.887 92.2554C357.359 91.7643 357.596 91.1503 357.596 90.4135V86.7296ZM349.09 78.2566C352.067 78.2566 354.902 78.011 357.596 77.5198V60.5739H347.672C345.782 60.5739 344.837 61.5563 344.837 63.521V75.6779C344.837 76.4147 345.073 77.0287 345.546 77.5198C346.018 78.011 346.609 78.2566 347.318 78.2566H349.09Z" fill="black"/>
</svg>
